<svg id="Capa_1" enable-background="new 0 0 512 512" height="512" viewBox="0 0 512 512" width="512" xmlns="http://www.w3.org/2000/svg"><g><path d="m464.321 394.496-53.286-35.524v-147.357c0-25.902-6.566-51.607-18.988-74.337l-65.389-119.639c-5.943-10.875-17.349-17.639-29.742-17.639-14.313 0-25.916 11.603-25.916 25.916 0 2.9.487 5.78 1.44 8.518l44.453 127.727c25.393 6.984 44.107 30.258 44.107 57.839v85c0 8.525-7.111 15.388-15.725 14.983-8.068-.38-14.275-7.33-14.275-15.406v-84.577c0-16.569-13.432-30-30-30-16.569 0-30 13.431-30 30v155.578c0 30.718 11.962 59.597 33.682 81.317l50.712 50.711c2.813 2.814 6.628 4.394 10.606 4.394h90c8.284 0 15-6.716 15-15v-90.023c0-5.015-2.507-9.699-6.679-12.481z"/><path d="m195.107 162.161 44.453-127.727c.953-2.739 1.44-5.618 1.44-8.518 0-14.313-11.603-25.916-25.916-25.916-12.393 0-23.799 6.764-29.742 17.639l-65.388 119.639c-12.422 22.729-18.988 48.435-18.988 74.337v147.357l-53.286 35.524c-4.173 2.782-6.68 7.465-6.68 12.481v90.023c0 8.284 6.716 15 15 15h90c3.978 0 7.793-1.58 10.607-4.393l50.712-50.711c21.72-21.721 33.682-50.6 33.682-81.317v-155.579c0-16.569-13.431-30-30-30-16.568 0-30 13.431-30 30v84.577c0 8.077-6.207 15.026-14.275 15.406-8.615.405-15.726-6.458-15.726-14.983v-85c0-27.581 18.714-50.855 44.107-57.839z"/></g></svg>