<svg id="Capa_1" enable-background="new 0 0 511.999 511.999" height="512" viewBox="0 0 511.999 511.999" width="512" xmlns="http://www.w3.org/2000/svg"><path d="m498.875 220.645-.001-.001c-3.64-3.641-7.804-6.577-12.323-8.741l7.168-7.168c17.502-17.502 17.504-45.983.002-63.489-3.69-3.69-7.868-6.603-12.328-8.737l11.591-11.591c17.5-17.505 17.5-45.985 0-63.489-7.862-7.862-18.162-12.436-29.227-13.04-.59-10.646-4.935-21.121-13.049-29.237-8.456-8.456-19.73-13.113-31.746-13.113-12.015.001-23.29 4.658-31.745 13.114l-11.591 11.591c-2.134-4.459-5.046-8.638-8.734-12.327-17.505-17.504-45.987-17.504-63.491 0l-49.757 49.756c-2.142-4.495-5.072-8.707-8.789-12.424-17.462-17.462-45.876-17.463-63.339 0l-82.274 82.273c-29.734 29.731-46.754 69.395-47.926 111.683-.382 13.79-5.987 26.779-15.783 36.575l-35.532 35.531-.001 192.9h187.744l38.112-38.112c9.795-9.795 22.784-15.4 36.575-15.782 42.287-1.173 81.949-18.193 111.679-47.925l124.763-124.758c17.501-17.502 17.502-45.984.002-63.489zm-79.912-188.606c4.002 0 7.742 1.536 10.531 4.325 5.8 5.801 5.805 15.237.019 21.046-.006.006-.013.012-.02.019l-11.591 11.591c-2.133-4.459-5.045-8.638-8.734-12.327-3.691-3.691-7.874-6.594-12.335-8.728l11.598-11.598c2.79-2.791 6.53-4.328 10.532-4.328zm-94.349 3.591c5.808-5.806 15.257-5.807 21.063-.001 5.807 5.808 5.806 15.257 0 21.064l-49.757 49.756c-2.142-4.497-5.071-8.707-8.79-12.425-3.663-3.664-7.813-6.548-12.238-8.674zm-204.16 119.605 82.274-82.273c2.793-2.793 6.507-4.331 10.457-4.331s7.664 1.538 10.457 4.331c5.845 5.844 5.848 15.352.009 21.203l-82.134 82.133c-29.734 29.731-46.755 69.395-47.926 111.684-.24 8.673-2.55 17.028-6.666 24.473l-20.526-20.526c9.233-13.288 14.45-28.968 14.905-45.393.958-34.59 14.862-67.014 39.15-91.301zm-90.453 175.002 16.141-16.141 21.063 21.063-37.204 37.204zm145.316 150.474h-145.317v-65.921l58.418-58.417 105.619 105.619zm302.342-217.79-124.763 124.757c-24.285 24.286-56.708 38.19-91.297 39.149-16.425.455-32.106 5.672-45.394 14.906l-107.53-107.53c9.233-13.288 14.449-28.968 14.904-45.393.958-34.589 14.862-67.014 39.15-91.3l82.125-82.125.159-.159c2.792-2.787 6.501-4.322 10.447-4.322 3.95 0 7.664 1.538 10.457 4.331 5.845 5.845 5.848 15.353.009 21.204l-53.395 53.395 21.213 21.213 133.146-133.141c5.808-5.808 15.257-5.809 21.063-.002 5.795 5.796 5.807 15.218.036 21.029l-104.768 104.768 21.213 21.213s146.287-146.285 146.293-146.291c2.787-2.777 6.519-4.308 10.511-4.308 4.002 0 7.742 1.537 10.531 4.326 5.806 5.808 5.806 15.258 0 21.065l-146.271 146.272 21.213 21.213 104.732-104.733c5.808-5.806 15.257-5.807 21.063 0 5.807 5.808 5.806 15.258 0 21.064l-118.874 118.874 21.213 21.213 81.751-81.751c2.79-2.79 6.53-4.327 10.532-4.327 4.001 0 7.741 1.536 10.531 4.325 5.806 5.809 5.806 15.258 0 21.065z"/></svg>