<svg id="Layer_1" enable-background="new 0 0 512 512" height="512" viewBox="0 0 512 512" width="512" xmlns="http://www.w3.org/2000/svg"><g><path d="m466.875 421.75h-45.25v-45.25c0-8.284-6.716-15-15-15h-41.152v-271.25h11.027c8.284 0 15-6.716 15-15s-6.716-15-15-15h-95.458v-19.625c0-5.858 4.767-10.625 10.625-10.625h14.542c8.284 0 15-6.716 15-15s-6.716-15-15-15h-14.542c-22.401 0-40.625 18.225-40.625 40.625v19.625h-115.542c-8.284 0-15 6.716-15 15s6.716 15 15 15h11.027v271.25h-41.152c-8.284 0-15 6.716-15 15v45.25h-45.25c-8.284 0-15 6.716-15 15v60.25c0 8.284 6.716 15 15 15h421.75c8.284 0 15-6.716 15-15v-60.25c0-8.284-6.716-15-15-15zm-290.348-331.5h158.946v271.25h-158.946zm-56.152 301.25h271.25v30.25h-271.25zm331.5 90.5h-391.75v-30.25h391.75z"/><path d="m281 180.75h-10v-15.125c0-8.284-6.716-15-15-15s-15 6.716-15 15v15.125h-10c-8.284 0-15 6.716-15 15s6.716 15 15 15h10v45.25c0 8.284 6.716 15 15 15s15-6.716 15-15v-45.25h10c8.284 0 15-6.716 15-15s-6.715-15-15-15z"/></g></svg>