<?xml version="1.0" encoding="iso-8859-1"?>
<!-- Generator: Adobe Illustrator 19.0.0, SVG Export Plug-In . SVG Version: 6.00 Build 0)  -->
<svg version="1.1" id="Capa_1" xmlns="http://www.w3.org/2000/svg" xmlns:xlink="http://www.w3.org/1999/xlink" x="0px" y="0px"
	 viewBox="0 0 512 512" style="enable-background:new 0 0 512 512;" xml:space="preserve">
<g>
	<g>
		<path d="M411.56,288.912l-15.832-94.945c-6.464-38.757-39.254-67.035-78.348-67.925C327.777,112.789,334,96.113,334,78
			c0-43.01-34.99-78-78-78c-43.009,0-78,34.99-78,78c0,18.113,6.223,34.789,16.619,48.042
			c-39.094,0.889-71.884,29.167-78.348,67.926l-15.832,94.944H20.511v82.08h37.498V512h30V370.992h335.982V512h30V370.992h37.498
			v-82.08H411.56z M256,30c26.468,0,48,21.532,48,48s-21.532,48-48,48c-26.467,0-48-21.532-48-48S229.532,30,256,30z
			 M145.863,198.901C150.008,174.043,171.309,156,196.511,156h118.977c25.202,0,46.503,18.043,50.648,42.901l15.01,90.011H351.72
			V184H160.279v104.912h-29.425L145.863,198.901z M321.72,214v74.912H190.279V214H321.72z M461.489,340.992h-7.498H58.009h-7.498
			v-22.08h44.926h64.842H351.72h64.842h44.927V340.992z"/>
	</g>
</g>
<g>
</g>
<g>
</g>
<g>
</g>
<g>
</g>
<g>
</g>
<g>
</g>
<g>
</g>
<g>
</g>
<g>
</g>
<g>
</g>
<g>
</g>
<g>
</g>
<g>
</g>
<g>
</g>
<g>
</g>
</svg>
