<?xml version="1.0" encoding="iso-8859-1"?>
<!-- Generator: Adobe Illustrator 19.0.0, SVG Export Plug-In . SVG Version: 6.00 Build 0)  -->
<svg version="1.1" id="Capa_1" xmlns="http://www.w3.org/2000/svg" xmlns:xlink="http://www.w3.org/1999/xlink" x="0px" y="0px"
	 viewBox="0 0 512 512" style="enable-background:new 0 0 512 512;" xml:space="preserve">
<g>
	<g>
		<path d="M512,150.309l-151.476-55.9C355.168,41.462,310.336,0,256,0s-99.169,41.462-104.524,94.409L0,150.309v92.157h175.044
			L97.044,512h317.912l-78-269.534H512V150.309z M256,30c36.253,0,66.586,25.835,73.555,60.061h-147.11
			C189.415,55.835,219.747,30,256,30z M168.619,120.061h174.762l87.119,32.15h-349L168.619,120.061z M375.044,482H136.956
			l69.318-239.534h99.451L375.044,482z M482,212.466H30V182.21h452V212.466z"/>
	</g>
</g>
<g>
</g>
<g>
</g>
<g>
</g>
<g>
</g>
<g>
</g>
<g>
</g>
<g>
</g>
<g>
</g>
<g>
</g>
<g>
</g>
<g>
</g>
<g>
</g>
<g>
</g>
<g>
</g>
<g>
</g>
</svg>
